<svg width="16" height="14" xmlns="http://www.w3.org/2000/svg"><g fill="none" fill-rule="evenodd"><path d="M9.333.333c.737 0 1.334.597 1.334 1.334V3H14c.736 0 1.333.597 1.333 1.333v8c0 .737-.597 1.334-1.333 1.334H2a1.333 1.333 0 01-1.333-1.334v-8C.667 3.597 1.264 3 2 3h3.333V1.667C5.333.93 5.93.333 6.667.333h2.666zM10 8.877V9c0 .736-.597 1.333-1.334 1.333H7.333A1.333 1.333 0 016 9v-.123c-1.5-.187-2.865-.58-4-1.125v3.581a1 1 0 00.941.999l.059.001h10a1 1 0 00.998-.94l.002-.06V7.752c-1.135.545-2.5.938-4 1.125zM8.333 7.333h-.666l-.053.002a.667.667 0 00-.606.561l-.006.054L7 8v.667l.002.052c.024.31.259.56.56.606l.055.007.05.001h.666l.053-.002a.667.667 0 00.606-.56l.006-.055.002-.05V8l-.002-.052a.667.667 0 00-.56-.607l-.055-.006-.05-.002zm4.667-3H3a1 1 0 00-.998.942L2 5.333v.918c1.036.602 2.417 1.066 4.006 1.283a1.334 1.334 0 011.258-1.199l.069-.002h1.333l.069.002c.66.034 1.193.547 1.258 1.198 1.59-.216 2.971-.68 4.007-1.282v-.918a1 1 0 00-.941-.998L13 4.333zM8.667 1.667H7.333a.667.667 0 00-.665.617l-.001.05V3h2.666v-.667a.667.667 0 00-.617-.665l-.05-.001z" fill="#003A61"/><path d="M0-1h16v16H0z"/></g></svg>