<svg width="72" height="72" xmlns="http://www.w3.org/2000/svg" xmlns:xlink="http://www.w3.org/1999/xlink"><defs><filter x="-15.8%" y="-14.2%" width="131.7%" height="131.7%" filterUnits="objectBoundingBox" id="a"><feOffset dy="1" in="SourceAlpha" result="shadowOffsetOuter1"/><feGaussianBlur stdDeviation="3" in="shadowOffsetOuter1" result="shadowBlurOuter1"/><feColorMatrix values="0 0 0 0 0 0 0 0 0 0 0 0 0 0 0 0 0 0 0.06 0" in="shadowBlurOuter1"/></filter><circle id="b" cx="30" cy="30" r="30"/></defs><g fill="none" fill-rule="evenodd"><g transform="translate(6 5)"><use fill="#000" filter="url(#a)" xlink:href="#b"/><use fill="#09F" xlink:href="#b"/></g><path d="M50 51s-4.714-1.855-8.527-3.341H25.437A3.546 3.546 0 0122 44.014V22.645A3.546 3.546 0 0125.437 19h21.125A3.546 3.546 0 0150 22.645V51zm-4.139-11.982a.88.88 0 00-1.292-.1A13.408 13.408 0 0136 41.594a13.56 13.56 0 01-8.572-2.684.881.881 0 00-1.29.107c-.16.2-.239.453-.219.708.017.254.13.492.318.664.142.128 3.537 3.15 9.762 3.15 6.225 0 9.621-3.022 9.763-3.15a.986.986 0 00.317-.664 1 1 0 00-.218-.707z" fill="#FFF" fill-rule="nonzero"/></g></svg>