<svg width="16" height="16" xmlns="http://www.w3.org/2000/svg"><g fill="none" fill-rule="evenodd"><path d="M8 .667a7.333 7.333 0 110 14.666A7.333 7.333 0 018 .667zm.014 2.666a.709.709 0 00-.7.662l-.002.05v.464a2 2 0 00-1.263.82c-.632.89-.457 2.137.35 2.813.392.298.874.442 1.362.547l.113.023c1.018.214 1.088.357 1.053.677 0 .203-.064.503-.431.624l-.06.018c-.527.178-1.194-.072-1.475-.464-.245-.32-.667-.391-.982-.178-.316.214-.387.677-.176.998.33.47.847.812 1.404 1l.105.033v.534a.71.71 0 00.702.713c.37 0 .675-.294.7-.662l.002-.05v-.535c.035 0 .07-.036.106-.036.912-.25 1.474-.962 1.509-1.852.07-1.639-1.299-1.96-2.141-2.138l-.343-.091c-.243-.066-.448-.13-.57-.23-.28-.213-.28-.64-.105-.89.316-.427 1.053-.356 1.965.214a.714.714 0 00.983-.214.738.738 0 00-.21-.997 4.47 4.47 0 00-1.096-.54l-.098-.03v-.57a.71.71 0 00-.702-.713z" fill="#003A61"/><path d="M0 0h16v16H0z"/></g></svg>