<svg width="1280" height="855" xmlns="http://www.w3.org/2000/svg"><g fill="none" fill-rule="evenodd"><path fill="#1B49BA" d="M0 0h1280v855H0z"/><path d="M0 608V0h608l-.081 10.054C602.549 341.206 332.43 608 0 608z" fill="#09F"/><path d="M1280 247v256h-256l.034-4.233C1026.295 359.334 1140.03 247 1280 247z" fill="#1B49BA"/><path d="M1280 247c-332.431 0-602.55 266.794-607.919 597.946L672 855h608V247z" fill="#FFDA55"/><path d="M1104 0v208H896l.028-3.44C897.865 91.272 990.274 0 1104 0z" fill="#F9B8C4"/><circle fill="#37B348" cx="810" cy="104" r="104"/><circle fill="#09F" cx="512" cy="775" r="64"/></g></svg>