<svg width="16" height="16" xmlns="http://www.w3.org/2000/svg"><g fill="none" fill-rule="evenodd"><path d="M11.333 7.333a4 4 0 110 8 4 4 0 010-8zm0 1.334a2.667 2.667 0 100 5.333 2.667 2.667 0 000-5.333zm.544 1.034c.333.11.52.458.437.793l-.015.05-.23.69.486.73a.667.667 0 01-.14.892l-.045.032a.667.667 0 01-.893-.14l-.032-.045-.666-1a.667.667 0 01-.095-.521l.017-.06.333-1a.667.667 0 01.843-.421zM4.823.685L4.877.7l3.8 1.266 3.131-.939a.667.667 0 01.857.59l.002.049v3.666a.667.667 0 01-1.332.05l-.002-.05v-2.77l-2 .6V6a.667.667 0 01-1.331.05L8 6V3.147l-2.667-.889v7.409h.334a.667.667 0 01.05 1.331l-.05.002h-.45a.666.666 0 01-.247.217l-.049.023-3.333 1.376a.667.667 0 01-.92-.567L.667 12V2.71c0-.252.141-.481.363-.594l.049-.023L4.42.713l.051-.017.05-.013.015-.004a.656.656 0 01.287.006zM4 2.33l-2 .825v7.848l2-.826V2.33z" fill="#003A61"/><path d="M0 0h16v16H0z"/></g></svg>